<?xml version="1.0" encoding="UTF-8"?>
<svg version="1.1" xmlns="http://www.w3.org/2000/svg" width="78" height="66">
<path d="M0 0 C25.74 0 51.48 0 78 0 C78 21.78 78 43.56 78 66 C52.26 66 26.52 66 0 66 C0 44.22 0 22.44 0 0 Z " fill="#FEFEFE" transform="translate(0,0)"/>
<path d="M0 0 C2.34008789 0.12304688 2.34008789 0.12304688 5 1 C6.84936523 3.17382812 6.84936523 3.17382812 8.55859375 6.03125 C9.19216797 7.07023437 9.82574219 8.10921875 10.47851562 9.1796875 C11.12498047 10.27539062 11.77144531 11.37109375 12.4375 12.5 C13.72667923 14.63613249 15.01702756 16.77155989 16.30859375 18.90625 C16.92589355 19.94136719 17.54319336 20.97648437 18.17919922 22.04296875 C20.28877705 25.46898198 22.57040623 28.74174948 24.95336914 31.98242188 C26.28411051 34.54767652 26.40466013 36.14707457 26 39 C24.45734993 40.98949964 23.56166359 41.88942647 21.06494141 42.38095093 C19.96931885 42.3845311 19.96931885 42.3845311 18.8515625 42.38818359 C17.60511963 42.40236832 17.60511963 42.40236832 16.33349609 42.4168396 C15.43969238 42.41076691 14.54588867 42.40469421 13.625 42.3984375 C12.24368896 42.40274277 12.24368896 42.40274277 10.83447266 42.40713501 C8.88768906 42.40917631 6.94088498 42.40364183 4.99414062 42.39111328 C2.01125301 42.37506056 -0.97027961 42.39095972 -3.953125 42.41015625 C-5.843753 42.40817383 -7.73438015 42.40433018 -9.625 42.3984375 C-10.51880371 42.40451019 -11.41260742 42.41058289 -12.33349609 42.4168396 C-13.57993896 42.40265488 -13.57993896 42.40265488 -14.8515625 42.38818359 C-15.58197754 42.38579681 -16.31239258 42.38341003 -17.06494141 42.38095093 C-19.55620529 41.89050103 -20.44638749 40.97113841 -22 39 C-22.79903823 35.42969425 -21.7822402 33.34334407 -19.9453125 30.35546875 C-19.01612042 28.95882417 -18.07529983 27.56986907 -17.125 26.1875 C-16.11849011 24.68185885 -15.11331512 23.1753246 -14.109375 21.66796875 C-13.59439453 20.9001709 -13.07941406 20.13237305 -12.54882812 19.34130859 C-9.62928635 14.92794075 -6.86790549 10.41585937 -4.08642578 5.91479492 C-1.097899 1.097899 -1.097899 1.097899 0 0 Z " fill="#5E8F9F" transform="translate(35,13)"/>
<path d="M0 0 C0.66 0 1.32 0 2 0 C3.65 2.97 5.3 5.94 7 9 C5.88625 9.268125 4.7725 9.53625 3.625 9.8125 C-0.21840951 10.65809019 -0.21840951 10.65809019 -2 14 C-2.99 14 -3.98 14 -5 14 C-5.67578125 12.328125 -5.67578125 12.328125 -6 10 C-4.85546875 7.421875 -4.85546875 7.421875 -3.1875 4.75 C-2.37345703 3.41195313 -2.37345703 3.41195313 -1.54296875 2.046875 C-1.03378906 1.37140625 -0.52460937 0.6959375 0 0 Z " fill="#F5F8F9" transform="translate(36,22)"/>
</svg>
